<?xml version="1.0" encoding="UTF-8"?>
<svg data-bbox="0.005 0 1069.99 819.777" viewBox="0 0 1070 819.76" height="819.76" width="1070" xmlns="http://www.w3.org/2000/svg" data-type="color">
    <g>
        <path d="M718.83 386.13C699.03 297.8 622.05 238.95 535 237.94c-87.18.78-163.72 60.29-183.68 147.27L323.2 732.68c-2.61 32.27-17.77 59.25-42.39 73.55-29.78 17.3-62.99 18.11-91.79.72-48.35-29.19-96.13-54.13-142.1-87.3C11.8 694.3-8.51 647.68 3.45 604.52l87.01-314.03C142.39 116.02 307.26-.27 488.14 0L593.2.16c177.65.27 336.68 121.1 387.05 292.43l86.3 311.95c11.94 43.15-8.27 89.75-43.46 115.13-46.49 33.53-94.82 58.95-143.89 88.21-28.37 16.92-60.75 15.27-89.95-1.64-24.63-14.26-39.86-41.25-42.46-73.54l-27.95-346.56ZM55.84 633.23l89.63-321.28c42.54-152.54 184-253.63 340.73-252.4 5.86-11.98 15.54-17.71 25.12-23.97-175.63-12.62-341.62 97.82-388.79 267.5L36.59 612.26c-7 25.2 3.05 50.24 17.83 68-.31-16.07-1.94-29.27 1.41-47.03Zm960.1 46.46c14.97-18.08 24.22-43.05 17.44-67.44l-85.91-309.11C897.58 134.05 734.44 23 558.67 35.61c9.67 6.2 19.11 12.02 25.12 23.93 155.71-1.16 297.66 98.56 339.98 250.31l90.58 324.8c4.37 15.68.39 29.97 1.59 45.05ZM752.53 377.9l29.69 360.92c3.02 19.96 15.88 33.79 30.24 40.71 18.01 8.68 35.9 6.68 52.17-2.95l78.67-46.59c29.06-17.21 46.15-54.7 36.42-89.67l-89.67-322.15C848.54 179.1 716.96 88.55 573.59 94.24c-20.35.81-14.68-30.66-41.25-28.33-21.36 1.87-16.36 29.1-35.95 28.33-143.31-5.63-277.59 84.11-316.46 223.92L90.34 640.33c-10.67 38.37 11.67 75.85 43.16 94.27l71.83 42.02c17.13 10.02 35.55 11.6 54.18 2.01 13.52-6.96 25.22-20.54 28.25-39.84l29.85-361.66C341.82 274.52 431.92 204.06 535 203.62c102.93.43 193.23 70.67 217.52 174.29Z" fill="#536e89" data-color="1"/>
        <path d="M705.68 206.18c-106.71-59.29-234.83-59.06-340.57-.3-9.27 5.15-20.15 1.19-23.94-7.62-3.29-7.65-1.75-17.6 7.62-22.79 116.68-64.56 257.99-64.41 374.22 1.12 8.39 4.73 8.49 15.4 5.84 21.6-3.16 7.4-13.09 13.6-23.17 7.99" fill="#536e89" data-color="1"/>
        <path d="M198.41 574.92c-14.13-1.11-24.33 4.23-27.83 16.55l-17.39 61.28c-2.67 9.41-11.91 12.86-18.81 11.79-10.14-1.57-16.46-10.64-13.64-21.09l16.23-60.15c6.66-24.68 27.99-44.75 54.37-42.78l66.75 4.99c10.61.79 14.76 12.25 13.52 19.92-1.66 10.24-9.79 14.44-20.83 13.57l-52.38-4.1Z" fill="#536e89" data-color="1"/>
        <path d="m917.31 653.7-18.73-64.16c-2.97-10.17-12.31-15.36-22.68-14.61l-56.68 4.1c-11 .8-19.17-3.44-20.82-13.58-1.25-7.69 2.91-19.13 13.52-19.92l66.75-4.98c26.36-1.97 47.71 18.1 54.36 42.77l16.23 60.15c2.57 9.51-2.52 18.16-11.55 20.64-6.39 1.76-17.36.06-20.41-10.4Z" fill="#536e89" data-color="1"/>
        <path d="m202.15 477.3-8.86 29.38c-2.79 9.26-13.59 11.61-22.21 8.54-6.84-2.43-12.18-11.58-9.66-20.69l6.82-24.64c13.6-49.11 55.42-47.77 101.28-40.38 9.58 1.54 13.1 12.39 11.65 19.22-1.94 9.19-8.66 14.61-19.01 13.89l-36.55-2.53c-11.02-.76-20 5.68-23.48 17.2Z" fill="#536e89" data-color="1"/>
        <path d="M868.61 479.62c-3.76-12.63-11.9-20.39-24.28-19.52l-36.51 2.56c-11.21.78-18.52-6.14-19.27-16.15-.68-9.07 5.86-17.34 16.69-18.23l33.87-2.78c29.49-2.42 54.83 16.19 62.7 44.59l6.77 24.42c2.55 9.18-2.83 18.28-9.66 20.72-8.63 3.09-19.48.75-22.26-8.6l-8.05-27.02Z" fill="#536e89" data-color="1"/>
        <path d="m237.84 351.79-9.39 28.58c-2.98 9.07-13.42 11.92-20.25 9.63-8.88-2.97-14.44-11.24-11.66-20.91l7.11-24.78c6.56-22.88 28.94-39.53 52.17-33.95l29.38 7.06c9.04 2.17 13.92 10.4 13.16 18.73-.74 8.19-9.39 16.92-18.84 14.72l-27.01-6.29c-5.57-1.3-12.5.6-14.67 7.2Z" fill="#536e89" data-color="1"/>
        <path d="M832.65 352.76c-2.03-6.48-8.57-9.7-15.17-8.16l-26.99 6.3c-8.59 2-16.75-5.46-18.43-12.51-2.15-9.04 2.99-18.6 12.75-20.95l29.37-7.06c23.34-5.61 45.59 11 52.18 33.97l7.1 24.75c2.77 9.64-2.77 17.94-11.62 20.9-7.81 2.61-18.05-1.6-21.16-11.55l-8.04-25.68Z" fill="#536e89" data-color="1"/>
        <path d="M294.79 247.84c-15.89 2.68-20.07 35.63-41.46 28.96-8.46-2.64-14.59-13.54-9.88-22.96 6.02-12.04 15.45-24.61 26.33-32.42 23.32-16.74 50.21-7.23 68.33 12.08 7.66 8.16 13.94 16.24 6.04 26.69-6.4 8.46-18.59 9.73-28 .37-4.73-4.7-11.95-14.3-21.36-12.72" fill="#536e89" data-color="1"/>
        <path d="M818.61 276.01c-21.4 9.92-27.52-24.06-42.23-28.16s-23.42 22.39-40.17 19.03c-6.54-1.32-11.82-7.17-13.38-12.63-2.77-9.73 3.44-14.08 9.25-20.63 17.56-19.79 45.07-28.71 68.12-12.24 11.04 7.89 20.24 20.4 26.4 32.47 4.34 8.52-.69 18.78-7.99 22.16" fill="#536e89" data-color="1"/>
    </g>
</svg>
