<?xml version="1.0" encoding="UTF-8"?>
<svg data-bbox="0.003 0.001 1069.961 925.812" viewBox="0 0 1069.96 925.81" height="925.81" width="1069.96" xmlns="http://www.w3.org/2000/svg" data-type="color">
    <g>
        <path d="M1068.14 399.19c-2.39-5.04-8.78-8.1-15.97-9.79l-171.24-40.33c2.12-3.73 2.87-8.21 2.43-12.82-2.26-23.65-35.54-19.57-59.08-34.04-13.96-26.59-11.37-60.77-37-58.59-23.57 2.01-20.09 36.21-34.63 58.75-7.76 4.66-16.95 7.54-25.72 10.2a1237 1237 0 0 0-43.16-8.05c-19.41-3.25-36.54 5.61-54.28 12.63l-76.32 30.18c-11.87 4.69-24.49 4.69-36.42.03l-95.34-37.33c-18.49-7.24-35.58-6.47-55.17-1.9L18.08 389.34c-7.59 1.77-13.75 5.04-16.17 9.87-3 5.99-2.51 12.9 1.82 18.99 46.09 64.87 102.1 142.87 133.9 215.44 26.92 61.46 61.58 115.58 105.78 163.45 91.22 98.79 219.4 144.04 352.86 124.11 161.14-24.07 272.72-143.69 336.57-288.57 31.66-71.86 86.86-149.01 133.4-214.44 4.35-6.12 4.76-12.99 1.9-19m-279.85-99.37c6.25 15.08 15.41 26.04 28.87 33.63 3.09 1.74 6.41 3.31 9.98 4.71-15.99 6.39-27 15.99-34.19 28.78-1.8 3.19-3.36 6.58-4.7 10.17-1.54-4.49-3.4-8.55-5.57-12.25-7.22-12.31-17.94-20.61-32.35-27.06 9.18-3.54 16.95-8.55 23.23-14.81 6.52-6.48 11.46-14.29 14.73-23.17m106.77 330.46c-69.53 148.26-184.78 257.93-355.52 259.94-175.33 2.07-294.96-109.64-365.52-261.95-11.05-28.03-25.45-52.23-39.01-79.99 80.02 71.84 180.44 164.42 280.53 198.1 77.24 25.99 161.65 26.06 238.87.04C754.52 712.69 854.92 620.12 935 548.31c-14.07 28.35-28.49 53.33-39.94 81.97m-450.37-6.83 72.84 2.75c-1.72 10.96 1.28 17.56 6.7 21.92 5.68 4.55 13.41 5.22 19.77 1.22 6.41-4.03 10.46-11.38 8.4-23.04l72.02-3.29c-.59 10.75-.72 20.35 7.92 25.96 6.58 4.26 17.87 4.46 23.93-4.01 4.45-6.23 4.4-14.42 3.57-23.82 23.94-1.95 46.91-2.29 70.99-6.6.44 11.2 7.29 19.08 16.85 19.54 11.12.55 20.27-7.47 18.26-22.15l49.26-6.6c-39.77 33.96-80.49 62.98-126.11 87.18-94.97 50.37-215.5 50.03-310.15-1.06-44.71-24.14-85.1-52.64-124.14-86.15 16.54.72 34.11 2.11 47.52 6.77 2.52 8.66 4.11 20.42 15.1 22.07 11.77 1.78 19.59-6.46 22.05-18.66 21.36.96 45.91 5.34 69.83 5 .81 7.42-.3 13.99 2.36 20.85 3.72 9.58 14.51 12.25 21.92 9.57 10.41-3.77 14.3-13.63 11.11-27.45m425.17-64.94c-33.4 6.52-68.95 11.67-102.66 15.91-6.03-6.54-11.7-11.48-19.76-11.55-8.72-.08-12.46 9.19-16.75 14.52l-69.68 7.73c-1.45-15.08-8.96-22.14-19.73-22.06-12.94.09-16.58 12.67-17.55 23.18l-70.63 2.69c.38-10.39-1.34-17.93-6.82-21.99-5.98-4.44-14.16-4.81-20.77-1.2-6.71 3.65-9.31 11.85-8.54 23.17l-70.71-2.69c-.96-10.56-4.67-23.04-17.56-23.16-10.69-.11-18.75 7.16-19.23 21.64-23.73-2.31-46.93-1.65-70.15-7.37-4.07-4.45-7.49-13.43-14.08-14.08-9.16-.9-15.7 2.68-21.38 11-33.84-3.33-69.53-9.18-103.81-15.86l-68.69-64.63c62.6 11.88 123.94 18.25 188.08 18.28l217.01.1 208.22-.02c66.09-.01 129.42-6.24 194.02-18.43zm93-108.16c-90.84 26.48-210.6 26.87-308.45 26.82l-215.23-.12c-107.9-.06-227.55 1.94-329.71-26.04-22.03-6.03-41.73-14.92-58.6-33.14l333.04-77.03c10.44-2.42 19.89.34 29.15 3.99l82.69 32.64c23.92 9.45 47.95 11.98 72.32 2.35l88.79-35.04c12.48-4.92 25.02-6 37.59-2.2 4.42 22.66 42.21 18.5 57.18 31.68 14.26 12.57 9.77 57.5 36.02 59.1 25.83 1.58 22.67-36.71 37.63-59.18l1.04-.39c7.45 1.57 15.65 3.33 24.8 5.34l168.12 38.81c-16.39 17.68-35.4 26.29-56.38 32.41" fill="#536e89" data-color="1"/>
        <path d="M1049.84 119.95c-2.92-30.59-45.97-25.31-76.43-44.03C955.36 41.53 958.71-2.7 925.55.13c-30.48 2.6-25.98 46.83-44.79 75.99-31.24 18.76-80.25 15.15-75.56 50.34 4.15 31.2 54.52 25.28 74.24 42.66 18.45 16.26 12.64 74.38 46.59 76.45 33.42 2.04 29.33-47.49 48.69-76.55l59.41-22.08c12.16-4.52 16.82-15.42 15.71-26.99m-123.32 75.67c-9.37-39.76-32.93-61.43-71.44-74.07 39.44-8.81 63.44-34.13 71.51-71.54 10.71 38.73 33.54 61.86 73.2 72.24-40.89 11.8-63.62 36.49-73.27 73.37" fill="#536e89" data-color="1"/>
        <path d="m790.11 326.92-1.17-.27c.15-.15.31-.29.46-.43z" fill="#536e89" data-color="1"/>
    </g>
</svg>
