<?xml version="1.0" encoding="UTF-8"?>
<svg data-bbox="-0.004 0.01 1068.023 1070.01" viewBox="0 0 1068.04 1070" height="1070" width="1068.04" xmlns="http://www.w3.org/2000/svg" data-type="color">
    <g>
        <path d="M973.22 579.29c-7.55-35.27-27.29-61.64-60.36-80.62l-1.73-.99.23-1.98c13.34-113.48 3.56-206.18-29.91-283.41-17.91-41.32-43.24-76.92-75.31-105.82-32.43-29.22-70.71-50.64-113.79-63.67-46.32-14-94.74-21.1-143.93-21.1s-96.89 6.93-143.53 20.61c-31.75 9.31-61.32 23.59-87.9 42.45-25.78 18.28-49.01 41.05-69.04 67.66l-2.55 3.4-2.36-3.53c-4.75-7.07-10.47-10.66-17.02-10.66-.69 0-1.4.04-2.11.12-6.94.76-12.68 5.68-15.01 12.84l-20.45 62.84c-1.03 3.16-5.09 13.75-14.03 17.38-14.53 5.89-29.37 10.46-43.73 14.86-8.32 2.56-16.92 5.21-25.41 8.1-7.14 2.42-12.34 9.2-12.64 16.46-.27 6.56 3.39 14.49 10.93 16.97l69.02 22.72c7.53 2.47 11.83 9.41 10.7 17.26-6.93 47.85-4.58 88.13-2.09 130.8.65 11.27 1.34 22.94 1.87 35.05l.08 1.82-1.59.93c-32.89 19.07-52.32 45.65-59.4 81.24-5.77 29-3.44 63.42 7.35 108.31 5.69 23.67 16.69 43.79 32.69 59.78 15.97 15.95 36 26.89 59.55 32.51l1.85.44.39 1.86c7.98 37.22 22.66 69.53 44.86 98.81 28.23 37.21 61.62 72.46 96.55 101.93 39.63 33.44 79.31 58.06 117.95 73.18 20.66 8.09 41.9 12.18 63.11 12.18 33.88 0 68.44-10.06 105.69-30.75 36.57-20.32 70.2-47.99 95.42-69.82l3.39-2.94 1.44 4.25 24.56 72.7c2.51 7.44 9.88 10.78 16.06 10.78.84 0 1.69-.06 2.49-.19 7.21-1.09 12.34-5.74 14.82-13.47l20.33-62.88c4.3-13.32 16.57-18.69 26.79-21.88l52.65-16.45c5.73-1.79 15.46-6.47 16.12-17.66.5-8.53-4.99-15.7-14.33-18.69l-63.14-20.23c-5.05-1.63-11.07-6.26-12.28-11.66l-.28-1.26.72-1.08c15.46-22.98 26.72-50 35.45-85.06l.44-1.79 1.78-.42c23.6-5.62 43.72-16.82 59.83-33.29 15.63-15.99 26.81-36.75 32.34-60.02 10.53-44.37 12.64-80 6.45-108.91ZM180.47 277.17l-6.61-2.97 6.76-2.6c20.47-7.88 35.19-22.6 42.55-42.55l2.66-7.22 2.95 7.11c8.79 21.18 22.66 34.87 43.65 43.09l7.11 2.78-7.09 2.84c-21.94 8.77-35.82 22.66-43.67 43.71l-2.94 7.87-2.75-7.94c-7.05-20.46-20.19-34.06-42.63-44.11Zm658.82 641.39 6.72 2.99-6.88 2.59c-20.28 7.62-33.51 20.56-42.88 41.91l-2.68 6.11-2.82-6.06c-10.04-21.62-23.96-35.33-42.57-41.9l-7.17-2.53 6.96-3.08c20.13-8.87 33.04-21.63 43.16-42.68l2.86-5.94 2.63 6.04c9.02 20.76 21.38 33.08 42.68 42.56Zm92.36-237.77c-8.72 29.16-23.26 48.33-43.2 56.96l-4.99 2.16.8-5.37 4.38-29.26c.99-6.53-.23-12.42-3.41-16.59-2.74-3.6-6.83-5.82-11.85-6.43-.85-.1-1.71-.16-2.53-.16-9.52 0-16.37 6.95-18.31 18.58-7.38 44.18-14.26 81.01-29.81 119.31l-2.84 6.98-2.77-7.01-9.72-24.63c-2.19-5.55-8.97-7.52-14.11-7.52-1.29 0-2.55.12-3.75.34-6.34 1.19-11.72 6.44-14.03 13.71l-18.73 58.87c-3.89 12.22-11.22 19.92-22.42 23.53l-62.83 20.31c-7.12 2.3-10.67 8.61-11.54 13.3-1.44 7.67 1.14 13.12 8.33 17.64 7.09 4.46 17.86 7.51 29.26 10.75 3.62 1.03 7.36 2.09 11.1 3.23l5.18 1.57-4.06 3.58c-43.94 38.7-109.06 80.04-160.1 80.04-1.79 0-3.58-.05-5.32-.16-87.31-5.17-187.39-96.68-246.57-173.47-34.1-44.26-44.12-101.03-53.8-155.92l-.09-.56c-1.78-10.1-10.51-15.54-17.83-15.54-5.33 0-10.47 2.15-13.75 5.75-2.85 3.13-4.13 7.12-3.72 11.53l2.6 28.32.5 5.47-4.89-2.51c-20.02-10.31-34.37-29.75-42.67-57.78-6.18-20.9-9.01-46.56-8.41-76.28.47-23.17 9.85-44.17 27.1-60.72l4.42-4.25.66 6.1 8.5 78.08c1.11 10.09 9.6 15.37 17.44 15.37.82 0 1.66-.06 2.47-.17 9.77-1.35 16.49-10.05 15.64-20.22l-17.53-207.88-.36-4.3 4.16 1.15c2.63.72 5.22 1.09 7.68 1.09 8.59 0 14.73-4.28 17.3-12.07l22.03-66.86c3.57-10.84 14.2-15.52 24.13-18.66l57.16-18.12c7.5-2.37 12.47-8.59 12.99-16.21.43-6.5-3.2-14.77-10.79-17.31l-69.19-23.16c-6.33-2.11-13.76-10.37-17.29-19.21-2.52-6.33-2.64-11.95-.35-16.28 31.44-59.24 86.79-103.13 155.84-123.57 41.48-12.27 85-18.49 129.32-18.49 39.05 0 78.52 4.85 117.3 14.39 97.04 23.87 164.94 88.39 196.33 186.56 19.44 60.8 24.95 127.88 17.33 211.09l-12.27 133.8c-.56 6.05 1.98 10.36 4.2 12.9 3.31 3.79 8.08 6.16 12.75 6.36.33.02.66.02.99.02 10.13 0 16.97-6.79 18.28-18.16l6.76-58.74.65-5.71 4.32 3.78c16.68 14.57 26.19 35.64 26.76 59.33.48 20.12-.65 49.88-8.88 77.36Z" fill="#536e89" data-color="1"/>
        <path d="M222.61 90.52c-1.18-12.33-11.82-15.93-29.08-20.79-9.29-2.61-19.81-5.57-28.9-11.16l-.7-.44-.39-.73c-4.71-8.96-7.61-18.84-10.19-27.55C147.73 10.79 143.93.01 131.3.01c-.65 0-1.34.03-2.03.09-12.25 1.05-15.99 11.76-21.1 29.15-2.85 9.72-5.8 19.79-11.45 28.55l-.38.58-.59.36c-8.47 5.09-18.22 8.05-27.67 10.9-19.67 5.95-31.63 10.37-29.65 25.25 1.71 12.81 15.6 16.47 30.31 20.33 9.8 2.57 19.92 5.24 26.42 10.97 6.33 5.56 9.13 15.9 12.12 26.85 4.33 15.94 8.44 30.99 22.28 31.84.45.02.91.04 1.34.04 12.56 0 16.58-11.24 22.1-29.58 2.99-9.92 6.07-20.17 11.72-28.64l.54-.81.92-.34 46.19-17.17c10.44-3.87 10.65-13.79 10.26-17.87Zm-52.4 4.44c-18.79 7.51-30.67 19.4-37.4 37.42l-2.94 7.87-2.75-7.94c-6.03-17.52-17.3-29.16-36.51-37.77l-6.62-2.97 6.77-2.6c17.53-6.75 30.12-19.34 36.43-36.41l2.66-7.22 2.95 7.11c7.51 18.12 19.39 29.85 37.38 36.91l7.1 2.78-7.08 2.84Z" fill="#536e89" data-color="1"/>
        <path d="M91.79 391.82c-2.2 3.71-7.17 5.05-13.45 6.74-2.93.79-6.95 1.61-10.07 2.77l-1.15.42-.52 1.1c-1.2 2.48-.88 5.57-1.59 8.83-1.14 5.12-2.42 10.93-5.75 13.05-3.92 2.5-7.73 3.72-11.66 3.72-3.7 0-7.47-1.08-11.53-3.29-4.06-2.2-4.98-7.99-5.85-13.59-.55-3.54-1.08-6.88-2.38-9.63l-.57-1.23-1.3-.38c-2.65-.77-5.43-1.28-8.12-1.76-6.03-1.1-11.74-2.13-14.19-6-4.59-7.21-4.86-14.21-.85-22.01 2.73-5.34 8.79-6.2 15.2-7.12 2.8-.4 5.68-.81 8.28-1.63l1.37-.43.53-1.34c1.02-2.58 1.43-5.63 1.87-8.85.81-5.88 1.65-11.97 6.16-14.43 4.16-2.26 7.97-3.36 11.66-3.36 1.88 0 3.74.29 5.6.87 1.85.58 3.7 1.47 5.58 2.65 3.66 2.33 4.74 7.39 5.87 12.75.78 3.68.58 7.49 2.33 10.66l.47.84.86.41c2.47 1.2 6.62 1.71 9.94 2.24 5.47.9 11.13 1.81 13.08 5.67 4.2 8.33 4.25 15.42.16 22.32Z" fill="#536e89" data-color="1"/>
        <path d="M1065.01 821.99c-2.2 3.71-7.17 5.05-13.45 6.74-2.93.79-6.95 1.61-10.07 2.77l-1.15.42-.52 1.1c-1.2 2.48-.88 5.57-1.59 8.83-1.14 5.12-2.42 10.93-5.75 13.05-3.92 2.5-7.73 3.72-11.66 3.72-3.7 0-7.47-1.08-11.53-3.29-4.06-2.2-4.98-7.99-5.85-13.59-.55-3.54-1.08-6.88-2.38-9.63l-.57-1.23-1.3-.38c-2.65-.77-5.43-1.28-8.12-1.76-6.03-1.1-11.74-2.13-14.19-6-4.59-7.21-4.86-14.21-.85-22.01 2.73-5.34 8.79-6.2 15.2-7.12 2.8-.4 5.68-.81 8.28-1.63l1.37-.43.53-1.34c1.02-2.58 1.43-5.63 1.87-8.85.81-5.88 1.65-11.97 6.16-14.43 4.16-2.26 7.97-3.36 11.66-3.36 1.88 0 3.74.29 5.6.87 1.85.58 3.7 1.47 5.58 2.65 3.66 2.33 4.74 7.39 5.87 12.75.78 3.68.58 7.49 2.33 10.66l.47.84.86.41c2.47 1.2 6.62 1.71 9.94 2.24 5.47.9 11.13 1.81 13.08 5.67 4.2 8.33 4.25 15.42.16 22.32Z" fill="#536e89" data-color="1"/>
        <path d="M822.28 576.17c-2.79 3.37-8.26 6.77-14.2 6.77-2.84 0-5.44-.78-7.74-2.34-34.65-23.43-72.91-35.81-110.63-35.81-4.58 0-9.21.18-13.78.53h-.08l-.07.02c-39.93 5.15-70.81 25.97-86.92 58.62l-.31.62v.7l-.81 152.63c-1.02 10.15-8.04 17.34-17.12 17.51-.13 0-.26.01-.39.01-5.07 0-9.71-1.86-13.08-5.24-3.47-3.48-5.29-8.22-5.27-13.68l.59-147.62c.05-14.3 6.49-29.15 19.65-45.41 14.74-18.21 33.13-32.14 54.65-41.39 20.07-8.64 42.32-13.01 66.13-13.01 44.71 0 91.59 15.8 128.63 43.35 3.17 2.35 4.23 6.13 4.57 8.9.64 5.34-.88 11.3-3.81 14.84Z" fill="#536e89" data-color="1"/>
        <path d="M505.82 561.72c-2.92 6.09-8.73 9.73-15.55 9.73-3.62 0-7.31-.99-10.97-2.95-26.97-14.42-56.73-22.04-86.07-22.04-34.48 0-67.07 10.43-94.22 30.14-5.54 4.03-11.14 6.15-16.19 6.15s-9.38-2.19-12.68-6.52c-3.42-4.48-4.78-9.12-4.04-13.79.86-5.45 4.63-10.73 10.61-14.87 17.71-12.27 36.77-21.64 56.64-27.87 19.37-6.05 39.54-9.13 59.96-9.13 35.56 0 70.67 9.03 104.34 26.85 9 4.76 12.52 15.2 8.19 24.29Z" fill="#536e89" data-color="1"/>
        <path d="M661.42 841.36c-6.99 10.3-21.34 18.12-42.63 23.23-18.1 4.34-41.4 6.64-67.38 6.64s-55.71-2.44-78.24-6.54c-16.52-3.01-30.73-10.93-38.98-21.73-3.41-4.48-4.9-9.77-4.18-14.94.68-4.94 3.3-9.34 7.36-12.39 2.91-2.18 6.41-3.33 10.13-3.33 6.06 0 11.91 2.99 16.03 8.19 9.44 11.93 45.95 14.43 74.9 14.43 24 0 50.46-1.82 69.06-4.74 10.88-1.71 18.56-6.88 25.34-11.44 5.53-3.72 10.32-6.94 15.28-6.94 3.05 0 6.22 1.21 9.71 3.71 6.74 4.82 9.88 16.62 3.6 25.86Z" fill="#536e89" data-color="1"/>
        <path d="M757.89 645.98c-16.3 9.97-34.86 15.24-53.67 15.24s-35.65-4.83-51.19-13.97c-10.18-5.98-13.51-15.39-8.9-25.14 2.59-5.49 9.46-9.47 16.32-9.48 2.77 0 5.39.64 7.79 1.89 12.58 6.57 24.99 9.89 36.9 9.89s22.45-3.03 32.93-9c3.17-1.81 6.8-2.77 10.49-2.77 6.69 0 12.67 3.18 15.25 8.09 4.17 7.94 3.51 19.5-5.92 25.26Z" fill="#536e89" data-color="1"/>
        <path d="M447.41 634.73c-1.36 5.25-5.17 9.92-10.47 12.82-15.71 8.61-33.74 13.16-52.13 13.16-29.52 0-51.93-11.46-58.82-22.79-3-4.92-3.27-9.8-.81-14.54 3.5-6.75 9.98-10.95 16.91-10.95 3.02 0 6.01.78 8.89 2.31 11.38 6.05 22.45 9 33.81 9 12.6 0 23.4-3.73 32.09-6.73 6.35-2.19 11.84-4.08 16.42-4.08 4.91 0 8.39 2.2 11.64 7.37 2.89 4.58 3.74 9.56 2.47 14.42Z" fill="#536e89" data-color="1"/>
        <path d="M589.55 933.85c-1.82 2.01-5.01 4.41-9.82 4.45l-59.55.45h-.17c-11.49 0-17.94-8.74-18.16-16.96-.15-5.4 1.47-10 4.7-13.3 3.6-3.71 9.21-5.75 15.8-5.75h51.74c11.27.01 19.18 6.67 20.11 16.96.46 4.98-1.37 10.53-4.65 14.15" fill="#536e89" data-color="1"/>
    </g>
</svg>
