<?xml version="1.0" encoding="UTF-8"?>
<svg data-bbox="0 -0.001 1070 1069.681" viewBox="0 0 1070 1069.68" height="1069.68" width="1070" xmlns="http://www.w3.org/2000/svg" data-type="color">
    <g>
        <path d="M769.48 499.07c54.91-2.62 77.78 28.13 127.48 10.19 24.74-8.93 50.42-13.39 76.32-8.3 77.17 15.18 66.97 114.61 40.64 184.38-5.69 15.06-12.57 28.21-15.51 44.7l23.91.6c24.31.61 47.03 20.71 47.09 47.31l.59 274.72c.02 10.44-6.48 17.01-17.59 17.01H17.59c-11.12 0-17.61-6.55-17.59-17.01l.59-274.73c.06-26.61 22.76-46.36 47.13-47.31l23.78-.92c-2.66-16-9.73-29.42-15.42-44.35-26.06-68.38-36.63-167.04 38.47-183.89 26.45-5.94 53.06-1.36 78.49 7.8 50.78 18.28 74.34-14.26 130.34-9.96 38.48 2.96 64.95 30.77 69.3 69.25 4.66 41.16-4.42 82.03-19.86 120.9-5.41 13.62-11.15 25.56-13.84 41.58 36.22-3.71 67.44 6.85 91.76 31.58 15.43 15.68 43.91 6.24 73.95 46.67 7.47 10.06 18.96 16.67 30.32 16.66 31.97-.03 34.03-42.08 81.92-51.98 28.08-5.8 43.89-49.85 113.97-43.05-2.4-15.76-8.31-27.93-13.71-41.44-15.24-38.14-24.04-78.11-20.22-118.55 3.85-40.68 31.7-69.9 72.51-71.85Zm-494.21 450.7c6.81-4.23 10.27-11.19 13.23-18.71 18.14-46.09 22.91-95.09 17.97-144.69-3.91-39.29 3.93-74.32 19.03-109.59 17.99-42.04 32.26-117.52-.96-139.45-19.65-12.97-45.81-10.94-67.69-2.76-35.46 13.26-68 12.94-103.51-.12-21.85-8.04-48.11-10.17-67.73 3.09-32.42 21.91-18.91 95.41-1.44 136.58 15.75 37.12 24.44 73.89 19.92 114.97-5.41 49.2.84 97.97 18.61 143.66 2.69 6.92 5.97 13.19 12.44 16.91 3.9-36.71 4.46-70.92 12.9-105.64 8.97-36.89 26.36-94 58.07-93.16 9.37.25 18.82 6.22 25.18 15.12 33.65 47.08 39.58 122.66 43.99 183.77Zm659.59-.1c6.52-3.72 9.69-10.06 12.39-16.9 18.42-46.68 23.9-96.32 18.53-146.53-4.2-39.23 4.39-74.65 19.29-110.03 17.73-42.1 32.29-116.35-.68-138.69-19.69-13.34-45.76-10.99-67.79-3.06-74 26.65-100.12-9.54-146.38-5.87-61.24 4.87-49.26 92.45-26.5 146.11 15.32 36.11 23.87 71.48 19.81 111.67-5.01 49.55-.14 98.61 17.94 144.67 2.97 7.56 6.43 14.48 13.29 18.74 3.75-38.59 4.34-74.41 13.89-110.6 9.38-35.54 26.65-90.49 57.26-88.31 9.42.67 18.66 6.23 25.01 15.28 33.9 48.3 39 121.95 43.94 183.51ZM623.62 802.9c-15.25 2.7-24.41 11.27-33.42 22.94-13 16.84-31.88 29.63-53.81 30.17-23.01.57-42.9-12.6-56.64-30.15-8.6-10.97-16.54-19.47-31.23-22.42-43.86-8.82-49.73-52.24-113.07-42.08 3.04 66.01 6.17 121.33-21.9 186.43-10.81 25.06-30.03 40.02-51.15 30.08-7.95-3.74-15.34-13.4-16.42-25l-5.54-59.48c-3.64-39.11-12.45-78.32-35.17-113.38-23.66 36.04-30.94 76.19-35.66 116.25-4.02 34.14 1.49 78.31-28.16 84.03-37.79 7.29-54.12-51.92-62.81-93.24-8.78-41.79-5.82-83.1-2.42-126l-25.81-.5c-11.13-.2-20.34 7.99-20.33 20.15l.06 259.14h1009.7l-.19-261.79c0-10.9-11.12-17.84-19.87-17.43l-26.08.43c3.57 43.68 6.39 85.74-2.83 128.23-8.83 40.73-25.1 98.21-62.36 91.03-10.58-2.04-21.25-11.74-22.49-24.79l-5.66-59.25c-3.84-40.18-12.05-80.17-35.57-116.15-22.89 34.95-31.45 74.13-35.29 113.28l-6.04 61.7c-1.14 11.63-9.79 20.76-17.81 23.65-21.46 7.72-39.03-7.23-49.24-30.93-19.75-45.86-25.38-94.6-23.53-144.88l1.54-41.86c-25.7-2.55-48.56-.29-66.64 16.05-12.75 11.52-26.85 22.7-44.18 25.76Z" fill="#536e89" data-color="1"/>
        <path d="m513.81 649.88-14.22-63c-1.23-5.44-27.52-2.21-25.92-21.31.73-8.7 7-14.42 18.2-13.45.29-7.22-.42-14.34-3.4-21.54-2.41-5.83-29.3-2.74-26.4-22.6 1.04-7.09 8.67-14.13 18.51-12.1.47-6.95-.94-13.76-3.9-21.22-2.75-6.92-29.43-4.17-26.46-23.43 1.28-8.34 8.57-13.11 18.97-12.52-1.02-8.5-1.58-15.22-4.65-22.13-2.28-5.14-27.94-1.54-26.04-21.91.78-8.36 9.97-12.54 18.44-13 1.88-2.82-.05-8.87-2.62-10.46-25.5-8.69-36.38-32.93-31.23-60.03-40.75-13.91-29.95-47.26-45.46-82.33-22.82-51.58-41.02-120.37-24.14-173.16C363.78 23.47 391.34 3.94 424.86.62c26.19-2.59 51.2 3.55 76.13 12.03C557.23 31.78 587.26-5.2 645.15.63c32.66 3.28 59.86 21.8 70.61 52.97 18.34 53.2-.5 122.69-23.32 175.3-15.69 36.17-4.42 64.69-44.06 82.96 1.1 25.91-5.98 52.6-35.02 59.99l-8.95 49.05c4.81 3.14 13.17 4.88 15.38 8.74 3.72 6.5 3.04 13.83-.29 17.57-5.71 6.41-13.19 6.69-21.52 4.31-2.63 7.29-3.76 14.02-4.4 21.37 7.92 1.1 13.9 4.41 16.45 8.55 3.48 5.64 2.38 13.74-.78 17.08-5.26 5.56-12.06 5.56-20.45 3.64-3.42 4.7-6.69 16.17-3.8 21.3 5.52 2.52 12.13 3.96 14.23 7.86 3.74 6.92 2.87 13.75-1 17.93-5 5.41-12.04 5.92-20.35 3.18-3.17 7.03-4.96 14.51-4.9 22.46 8.59.66 14.28 3.26 17.27 10.12 2.16 4.97.95 11.68-3.94 16.49-4.19 4.12-11.15 4.48-19.44 1.77l-9.5 43.58c-2.29 10.52-10.6 17.49-19.99 18.47-9.04.94-20.97-3.81-23.59-15.42Zm137.55-382.1c3.51-26.8 13.06-48.19 22.03-71.69 21.1-55.26 38.32-147.69-18.13-163.17-56.5-15.5-91.68 34.37-169.48 6.22-22.9-8.29-47.39-12.72-71.07-6.22-56.34 15.47-39.44 107.98-18.1 163.16 9.39 24.27 18.82 46.64 22.32 72.89 1.02 7.65 8.55 14.39 16.61 14.39h198.89c8.12 0 15.75-6.67 16.92-15.59Zm-43.48 74.56c10.54-.04 12.91-21.07 8.96-28.74l-162.43-.04c-6.56 6-2.63 29.3 8.61 29.26l144.86-.49Zm-32.49 71.22c3.33-17.37 4.22-27.39 8.08-39.98l-96.9.03 4.21 18.15 84.62 21.8Zm-12.56 51.32c4.57-8.13 5.49-13.8 5.16-21.84l-70.23-18.73c1.29 8.57 1.92 16.33 5.2 24zm-9.49 50.53 5.07-21.65-48.84-12.59c.1 8.42 1.95 15.74 4.91 23.94zm-9.3 48.94 3.25-19.69-25.99-6.56c1.04 8.42 1.06 16.08 5.26 21.93 3.31 4.61 13.23 5.36 17.48 4.32" fill="#536e89" data-color="1"/>
        <path d="M113.77 579.47c-9.85 52.28 28.74 83.83 7.96 96.59-32.02 19.65-55.38-108.99-25.33-121.02 6.38-2.55 11.82.82 15.25 3.88 5.73 5.11 3.4 13.77 2.13 20.55Z" fill="#536e89" data-color="1"/>
        <path d="M773.7 576.87c-12.32 52.5 28.83 86.49 7.61 99.14-36.45 21.73-57.25-134.22-17.51-121.48 10.8 3.46 12.26 12.3 9.91 22.33Z" fill="#536e89" data-color="1"/>
    </g>
</svg>
